<svg xmlns="http://www.w3.org/2000/svg" width="64" height="64" viewBox="0 0 64 64" fill="none">
  <circle cx="32" cy="32" r="32" fill="#0F52BA"/>
  
  <g stroke="#ffffff" stroke-width="2.5" stroke-linecap="round" stroke-linejoin="round" fill="none">
      <path d="M18 22c0-5.5 4.5-10 10-10s10 4.5 10 10c0 5.5-10 18-10 18S18 27.5 18 22z"/>
      <circle cx="28" cy="22" r="3" fill="#ffffff" stroke="none"/>

      <path d="M28 40 C 32 48, 44 48, 48 36 C 52 24, 42 16, 38 20" stroke-dasharray="4 4"/>

      <path d="M38 20 L 50 8 L 52 10"/>
      <path d="M52 10 L 60 14 L 56 18 L 52 16 L 48 20 L 44 18 L 52 10 Z" fill="#ffffff" stroke="none" transform="rotate(15 52 14)"/>
  </g>
</svg>